<?xml version="1.0" encoding="UTF-8" standalone="no"?><!-- Generator: Gravit.io --><svg xmlns="http://www.w3.org/2000/svg" xmlns:xlink="http://www.w3.org/1999/xlink" style="isolation:isolate" viewBox="0 0 100 100" width="100pt" height="100pt"><defs><clipPath id="_clipPath_I0ubrdzUOZ4h7RSeKfROQmybAkXvjGq2"><rect width="100" height="100"/></clipPath></defs><g clip-path="url(#_clipPath_I0ubrdzUOZ4h7RSeKfROQmybAkXvjGq2)"><clipPath id="_clipPath_qkRZHvehSB7zoQxt0PlSAn7T3YXl1Jkt"><rect x="0.455" y="0.212" width="100" height="100" transform="matrix(1,0,0,1,0,0)" fill="rgb(255,255,255)"/></clipPath><g clip-path="url(#_clipPath_qkRZHvehSB7zoQxt0PlSAn7T3YXl1Jkt)"><g><clipPath id="_clipPath_x9HYgPKKAXhT2hH87M7PZBpof5OV8i2C"><rect x="31" y="8.064" width="38.91" height="84.295" transform="matrix(1,0,0,1,0,0)" fill="rgb(255,255,255)"/></clipPath><g clip-path="url(#_clipPath_x9HYgPKKAXhT2hH87M7PZBpof5OV8i2C)"><g><g><clipPath id="_clipPath_91QSmE0yMKBh0NhOpvaGxxqOmGfvTuLF"><rect x="31" y="8.064" width="38.91" height="84.295" transform="matrix(1,0,0,1,0,0)" fill="rgb(255,255,255)"/></clipPath><g clip-path="url(#_clipPath_91QSmE0yMKBh0NhOpvaGxxqOmGfvTuLF)"><g><g><g><g><g><path d=" M 39.832 92.359 L 56.802 92.359 L 56.802 49.85 L 68.645 49.85 L 69.914 35.603 L 56.802 35.603 L 56.802 27.521 C 56.802 24.161 57.483 22.852 60.729 22.852 L 69.919 22.852 L 69.919 8.077 L 58.137 8.077 C 45.509 8.077 39.81 13.641 39.81 24.292 L 39.81 35.638 L 31 35.638 L 31 50.037 L 39.832 50.037 L 39.832 92.359 Z " fill="rgb(15,70,140)"/></g></g></g></g></g></g></g></g></g></g></g></g></svg>