<?xml version="1.0" encoding="UTF-8" standalone="no"?><!-- Generator: Gravit.io --><svg xmlns="http://www.w3.org/2000/svg" xmlns:xlink="http://www.w3.org/1999/xlink" style="isolation:isolate" viewBox="0 0 100 100" width="100pt" height="100pt"><defs><clipPath id="_clipPath_6Y4TuB23oI3iIpS71lTNrD9MWks2Acn6"><rect width="100" height="100"/></clipPath></defs><g clip-path="url(#_clipPath_6Y4TuB23oI3iIpS71lTNrD9MWks2Acn6)"><clipPath id="_clipPath_LaRXyWCqzZzoIgSme1ix7cgwbd5rtPT8"><rect x="0" y="0" width="100" height="100" transform="matrix(1,0,0,1,0,0)" fill="rgb(255,255,255)"/></clipPath><g clip-path="url(#_clipPath_LaRXyWCqzZzoIgSme1ix7cgwbd5rtPT8)"><g><clipPath id="_clipPath_eTcSKJUVphwtu4TykS79jzua4sK2Mtnf"><rect x="13.733" y="13.733" width="72.534" height="72.534" transform="matrix(1,0,0,1,0,0)" fill="rgb(255,255,255)"/></clipPath><g clip-path="url(#_clipPath_eTcSKJUVphwtu4TykS79jzua4sK2Mtnf)"><g><g><g><g><path d=" M 50.002 20.273 C 59.682 20.273 60.839 20.307 64.661 20.486 C 66.961 20.511 69.239 20.932 71.395 21.731 C 74.56 22.953 77.06 25.457 78.277 28.624 C 79.072 30.778 79.492 33.052 79.518 35.347 C 79.697 39.153 79.732 40.318 79.732 50.01 C 79.732 59.701 79.697 60.843 79.518 64.668 C 79.491 66.968 79.07 69.246 78.274 71.403 C 77.051 74.563 74.552 77.061 71.391 78.281 C 69.237 79.087 66.958 79.511 64.657 79.534 C 60.832 79.713 59.686 79.751 49.995 79.751 C 40.303 79.751 39.161 79.713 35.335 79.534 C 33.035 79.511 30.756 79.087 28.602 78.281 C 27.02 77.706 25.589 76.781 24.414 75.575 C 23.209 74.398 22.282 72.968 21.7 71.388 C 20.901 69.231 20.479 66.953 20.452 64.653 C 20.273 60.847 20.239 59.678 20.239 49.995 C 20.239 40.311 20.273 39.157 20.452 35.332 C 20.483 33.034 20.908 30.759 21.708 28.605 C 22.942 25.448 25.449 22.957 28.613 21.742 C 30.769 20.94 33.047 20.515 35.347 20.486 C 39.153 20.311 40.322 20.273 50.002 20.273 Z  M 50.002 13.741 C 40.151 13.741 38.917 13.775 35.046 13.965 C 32.039 14.028 29.063 14.599 26.245 15.652 C 21.376 17.53 17.526 21.377 15.644 26.245 C 14.587 29.064 14.014 32.04 13.95 35.05 C 13.779 38.917 13.737 40.147 13.737 50.006 C 13.737 59.865 13.779 61.091 13.95 64.962 C 14.014 67.97 14.586 70.946 15.644 73.763 C 17.525 78.633 21.375 82.483 26.245 84.364 C 29.062 85.423 32.038 85.993 35.046 86.05 C 38.914 86.229 40.143 86.271 50.002 86.271 C 59.861 86.271 61.087 86.229 64.958 86.05 C 67.966 85.993 70.943 85.423 73.759 84.364 C 78.63 82.481 82.481 78.63 84.364 73.759 C 85.422 70.941 85.994 67.964 86.054 64.954 C 86.226 61.087 86.267 59.857 86.267 49.998 C 86.267 40.139 86.21 38.921 86.054 35.05 C 85.99 32.04 85.418 29.064 84.36 26.245 C 82.475 21.377 78.627 17.527 73.759 15.64 C 70.939 14.593 67.962 14.027 64.954 13.965 C 61.087 13.786 59.857 13.752 49.998 13.752" fill="rgb(15,70,140)"/></g><g><path d=" M 50.002 31.38 C 42.468 31.379 35.675 35.916 32.791 42.876 C 29.907 49.837 31.501 57.849 36.828 63.176 C 42.155 68.504 50.168 70.097 57.128 67.213 C 64.088 64.329 68.625 57.536 68.624 50.002 L 68.624 50.002 C 68.622 39.718 60.286 31.382 50.002 31.38 Z  M 50.002 62.092 C 45.112 62.093 40.702 59.149 38.83 54.631 C 36.958 50.114 37.991 44.913 41.448 41.455 C 44.906 37.996 50.106 36.961 54.624 38.832 C 59.142 40.703 62.088 45.112 62.088 50.002 L 62.088 50.002 C 62.089 53.208 60.816 56.283 58.55 58.551 C 56.283 60.818 53.208 62.092 50.002 62.092 L 50.002 62.092 Z " fill="rgb(15,70,140)"/></g><g><path d=" M 73.71 30.646 C 73.71 31.847 73.223 32.935 72.435 33.722 C 71.648 34.509 70.56 34.997 69.359 34.997 C 66.956 34.997 65.007 33.049 65.007 30.646 L 65.007 30.646 C 65.007 29.492 65.464 28.385 66.279 27.568 C 67.095 26.751 68.201 26.292 69.355 26.291 L 69.355 26.291 C 70.509 26.291 71.615 26.749 72.431 27.565 C 73.247 28.381 73.706 29.488 73.706 30.642 L 73.706 30.642" fill="rgb(15,70,140)"/></g></g></g></g></g></g></g></g></svg>