<?xml version="1.0" encoding="UTF-8" standalone="no"?><!-- Generator: Gravit.io --><svg xmlns="http://www.w3.org/2000/svg" xmlns:xlink="http://www.w3.org/1999/xlink" style="isolation:isolate" viewBox="0 0 100 100" width="100pt" height="100pt"><defs><clipPath id="_clipPath_7I9AKscwLGOYrPmZ1B1StgNEjJBpmJTA"><rect width="100" height="100"/></clipPath></defs><g clip-path="url(#_clipPath_7I9AKscwLGOYrPmZ1B1StgNEjJBpmJTA)"><clipPath id="_clipPath_G06ZFxkMpcsWtdLFgbeaoBRkq5RvfkCK"><rect x="0.708" y="0.265" width="100" height="100" transform="matrix(1,0,0,1,0,0)" fill="rgb(255,255,255)"/></clipPath><g clip-path="url(#_clipPath_G06ZFxkMpcsWtdLFgbeaoBRkq5RvfkCK)"><g><g><path d=" M 16.536 86.401 L 31.43 86.401 L 31.43 38.209 L 16.536 38.209 L 16.536 86.401 Z " fill="rgb(15,70,140)"/><clipPath id="_clipPath_9BFBGKWK8OqBD2Q6vunntdpjdPRNgFkm"><rect x="15.083" y="14.124" width="72.25" height="72.281" transform="matrix(1,0,0,1,0,0)" fill="rgb(255,255,255)"/></clipPath><g clip-path="url(#_clipPath_9BFBGKWK8OqBD2Q6vunntdpjdPRNgFkm)"><g><g><g><g><path d=" M 23.903 31.905 C 28.794 31.89 32.748 27.914 32.735 23.022 L 32.735 23.022 C 32.697 18.165 28.733 14.256 23.876 14.284 C 19.019 14.312 15.101 18.266 15.118 23.124 C 15.135 27.981 19.081 31.908 23.938 31.901" fill="rgb(15,70,140)"/></g><g><path d=" M 55.293 61.109 C 55.293 54.338 58.409 50.298 64.37 50.298 C 69.856 50.298 72.489 54.17 72.489 61.105 L 72.489 86.401 L 87.337 86.401 L 87.337 55.889 C 87.337 42.981 80.02 36.744 69.805 36.744 C 63.904 36.665 58.395 39.688 55.293 44.707 L 55.293 38.217 L 40.971 38.217 L 40.971 86.401 L 55.293 86.401 L 55.293 61.109 Z " fill="rgb(15,70,140)"/></g></g></g></g></g></g></g></g></g></svg>