<?xml version="1.0" encoding="UTF-8" standalone="no"?><!-- Generator: Gravit.io --><svg xmlns="http://www.w3.org/2000/svg" xmlns:xlink="http://www.w3.org/1999/xlink" style="isolation:isolate" viewBox="0 0 100 100" width="100pt" height="100pt"><defs><clipPath id="_clipPath_PqBWnjRHFR4yPG93fD8cfsCXKNFSFeT2"><rect width="100" height="100"/></clipPath></defs><g clip-path="url(#_clipPath_PqBWnjRHFR4yPG93fD8cfsCXKNFSFeT2)"><clipPath id="_clipPath_c4lVWoD7TwPH1sWqDusu423R0XF6UeqL"><rect x="0.429" y="-0.222" width="100" height="100" transform="matrix(1,0,0,1,0,0)" fill="rgb(255,255,255)"/></clipPath><g clip-path="url(#_clipPath_c4lVWoD7TwPH1sWqDusu423R0XF6UeqL)"><g><path d=" M 14.554 86.829 L 19.763 67.8 C 16.548 62.23 14.859 55.916 14.863 49.442 C 14.872 29.2 31.344 12.727 51.583 12.727 C 61.405 12.73 70.624 16.556 77.559 23.497 C 84.491 30.438 88.307 39.663 88.304 49.476 C 88.294 69.721 71.822 86.193 51.583 86.193 C 45.439 86.19 39.384 84.649 34.021 81.722 L 14.554 86.829 Z  M 34.923 75.075 C 40.097 78.147 45.037 79.987 51.571 79.99 C 68.392 79.99 82.095 66.3 82.104 49.469 C 82.11 32.605 68.472 18.933 51.595 18.927 C 34.762 18.927 21.069 32.617 21.062 49.445 C 21.059 56.315 23.072 61.459 26.453 66.84 L 23.369 78.104 L 34.923 75.075 Z  M 70.081 58.204 C 69.852 57.821 69.241 57.593 68.321 57.133 C 67.404 56.673 62.893 54.453 62.05 54.147 C 61.21 53.842 60.599 53.687 59.984 54.607 C 59.373 55.524 57.613 57.593 57.079 58.204 C 56.545 58.816 56.008 58.893 55.091 58.433 C 54.174 57.973 51.216 57.006 47.711 53.879 C 44.985 51.446 43.142 48.441 42.608 47.521 C 42.073 46.604 42.552 46.107 43.009 45.65 C 43.423 45.24 43.926 44.579 44.386 44.042 C 44.852 43.51 45.003 43.128 45.312 42.513 C 45.618 41.902 45.467 41.365 45.235 40.905 C 45.003 40.448 43.169 35.93 42.407 34.093 C 41.66 32.306 40.903 32.546 40.341 32.519 L 38.581 32.488 C 37.97 32.488 36.976 32.716 36.136 33.636 C 35.296 34.556 32.925 36.773 32.925 41.29 C 32.925 45.808 36.213 50.17 36.67 50.782 C 37.13 51.393 43.139 60.662 52.343 64.636 C 54.532 65.58 56.242 66.146 57.573 66.569 C 59.771 67.266 61.772 67.168 63.353 66.933 C 65.116 66.67 68.781 64.713 69.547 62.57 C 70.312 60.424 70.312 58.587 70.081 58.204 Z " fill="rgb(15,70,140)"/></g></g></g></svg>